<svg width="28" height="24" viewBox="0 0 28 24" fill="none" xmlns="http://www.w3.org/2000/svg">
<path d="M27.2253 3.3472C26.215 3.79921 25.1356 4.09517 24.0083 4.24045C25.1675 3.54092 26.0502 2.44318 26.4649 1.11943C25.3855 1.77054 24.1944 2.22793 22.9235 2.48622C21.9026 1.3831 20.4403 0.699707 18.8504 0.699707C15.7609 0.699707 13.2724 3.23957 13.2724 6.34984C13.2724 6.79647 13.3096 7.22695 13.4 7.63591C8.75784 7.40991 4.65277 5.15524 1.89301 1.72749C1.40912 2.57232 1.1273 3.54091 1.1273 4.58484C1.1273 6.54356 2.12166 8.27626 3.60523 9.27714C2.70658 9.261 1.8292 8.99733 1.08476 8.58298C1.08476 8.59913 1.08476 8.62065 1.08476 8.64756C1.08476 11.3919 3.02031 13.6735 5.55674 14.1954C5.10475 14.3192 4.60491 14.3838 4.09444 14.3838C3.73817 14.3838 3.37658 14.3623 3.03626 14.2869C3.75944 16.5255 5.81197 18.1667 8.25268 18.2205C6.35435 19.7218 3.94023 20.6312 1.33468 20.6312C0.877379 20.6312 0.436031 20.6097 0 20.5559C2.47261 22.1702 5.40253 23.0904 8.56109 23.0904C18.8344 23.0904 24.4496 14.4806 24.4496 7.01709C24.4496 6.76956 24.439 6.52741 24.4284 6.28526C25.5344 5.48886 26.4649 4.49337 27.2253 3.3472Z" fill="#6900FF"/>
</svg>
