<svg width="31" height="24" viewBox="0 0 31 24" fill="none" xmlns="http://www.w3.org/2000/svg">
<path d="M28.1979 2.794L30.6014 0.504798V0H22.2862L16.3568 14.7389L9.61654 0H0.895886V0.504798L3.69895 3.87403C3.97515 4.12056 4.11618 4.49035 4.08092 4.85428V18.1082C4.16907 18.5836 4.01041 19.0767 3.67545 19.423L0.513916 23.2442V23.7372H9.46963V23.2324L6.3081 19.4171C5.96727 19.0708 5.80272 18.5895 5.87324 18.1023V6.64455L13.7359 23.749H14.6527L21.4165 6.64455V20.2682C21.4165 20.6263 21.4165 20.7026 21.1814 20.9374L18.7486 23.2853V23.7901H30.5485V23.2853L28.2038 20.9902C27.9981 20.8376 27.8923 20.5735 27.9335 20.3211V3.46315C27.8923 3.21075 27.9922 2.95248 28.1979 2.794Z" fill="#6900FF"/>
</svg>
