<svg width="59" height="24" viewBox="0 0 59 24" fill="none" xmlns="http://www.w3.org/2000/svg">
<g clip-path="url(#clip0_101_4)">
<path d="M33.7968 15.3066C35.2956 13.0781 36.7955 10.8486 38.2964 8.61808C39.0628 7.47745 39.842 6.34475 40.5845 5.18828C40.6852 5.00566 40.8394 4.85772 41.0268 4.76407C41.2141 4.67042 41.4258 4.63549 41.6336 4.6639C42.3248 4.70681 43.0181 4.70681 43.7094 4.6639C44.3321 4.61955 44.5285 4.81282 44.5221 5.45601C44.4886 8.54362 44.5061 11.6344 44.5061 14.7173V15.267L44.6419 15.3351L51.7825 4.72094H49.8265L49.7578 4.56252C50.6664 4.01121 51.5733 3.45357 52.4819 2.90702C53.9796 2.00086 55.4854 1.10895 56.9703 0.183774C57.4158 -0.0934618 57.5707 -0.050689 57.6905 0.48002C57.9619 1.68718 58.2829 2.88326 58.6214 4.07458C58.7427 4.5039 58.722 4.78589 58.203 4.68133C57.0087 4.44053 56.4306 5.0853 55.8223 5.99939C52.0412 11.674 48.1914 17.3043 44.3912 22.9662C44.0351 23.4969 43.6567 23.7187 43.0276 23.6712C42.364 23.6276 41.6983 23.6276 41.0348 23.6712C40.4999 23.6997 40.3626 23.4938 40.3658 22.9837C40.3881 19.923 40.3786 16.8623 40.3658 13.7953C40.3658 13.5481 40.4472 13.2836 40.2907 13.0285C39.9889 13.1663 39.8979 13.4594 39.7431 13.6875C37.6428 16.7989 35.5511 19.9145 33.4678 23.0343C33.1708 23.4811 32.8595 23.6981 32.307 23.668C31.5917 23.6237 30.8699 23.6379 30.1546 23.668C29.6931 23.6855 29.4919 23.5651 29.4919 23.0549C29.5079 17.1459 29.5079 11.2362 29.4919 5.3261C29.4919 4.77163 29.7139 4.66707 30.2025 4.68133C31.1047 4.71143 32.0116 4.72886 32.917 4.68133C33.5557 4.64489 33.661 4.90153 33.6563 5.46234C33.6323 8.47233 33.6451 11.4823 33.6451 14.4844V15.2765L33.7968 15.3066Z" fill="#00BA3A"/>
<path d="M0 23.5951C3.32017 18.6947 6.63927 13.7952 9.9573 8.89689C10.802 7.65012 11.661 6.41127 12.4897 5.15341C12.7149 4.81122 12.9464 4.63696 13.3823 4.66389C14.0988 4.71775 14.8183 4.71775 15.5347 4.66389C16.2437 4.59577 16.3459 4.88726 16.3331 5.50827C16.3012 8.56895 16.3171 11.6281 16.3187 14.6887C16.3187 14.8725 16.2597 15.0911 16.3411 15.2305C16.4465 15.4143 16.5391 15.2654 16.5742 15.126C16.5722 15.0656 16.5883 15.006 16.6204 14.9547C16.6525 14.9034 16.6992 14.8627 16.7547 14.8377C18.6244 12.0843 20.5868 9.38799 22.3257 6.55543C23.2135 5.10905 24.1843 4.41834 25.9216 4.64646C27.1574 4.80488 27.175 4.67815 27.175 5.91383C27.175 11.5114 27.175 17.1057 27.175 22.6969C27.175 23.0137 27.1335 23.3306 27.1111 23.6395C25.7347 23.7979 24.3584 23.8993 22.9883 23.5825C22.95 20.4774 22.9883 17.3724 22.9644 14.2673C22.9644 13.9648 23.156 13.5497 22.6594 13.4024C20.656 16.3701 18.6521 19.3378 16.6477 22.3056C16.3523 22.7412 16.0633 23.1801 15.7711 23.6189C15.2681 23.9104 14.7172 23.7472 14.1951 23.7425C13.5564 23.7425 12.9177 23.9009 12.2886 23.6332C12.2737 20.3211 12.2582 17.0091 12.2422 13.697C12.2422 13.4879 12.3205 13.2218 12.2199 13.0792C12.0602 12.8463 12.0043 13.0982 11.95 13.2249C11.957 13.2839 11.9432 13.3435 11.9108 13.3934C11.8785 13.4434 11.8297 13.4807 11.7728 13.499C9.87162 16.3115 7.97042 19.1229 6.06923 21.9333L4.91798 23.6332C4.64813 23.8819 4.3176 23.7456 4.01901 23.7504C2.88692 23.7694 1.75642 23.7662 0.624328 23.7504C0.419945 23.744 0.148497 23.8819 0 23.5951Z" fill="#373737"/>
</g>
<defs>
<clipPath id="clip0_101_4">
<rect width="58.682" height="23.79" fill="white"/>
</clipPath>
</defs>
</svg>
