<svg width="29" height="29" viewBox="0 0 29 29" fill="none" xmlns="http://www.w3.org/2000/svg">
<path d="M13.5175 1.97258C13.9502 1.72533 14.4814 1.72533 14.9141 1.97258L17.3772 3.38005C18.0521 3.76571 18.2866 4.62547 17.9009 5.30038C17.5152 5.97528 16.6555 6.20976 15.9806 5.8241L14.2158 4.81566L12.451 5.8241C11.7761 6.20976 10.9164 5.97528 10.5307 5.30038C10.145 4.62547 10.3795 3.76571 11.0544 3.38005L13.5175 1.97258Z" fill="#373737"/>
<path d="M8.04862 6.71872C8.43428 7.39362 8.1998 8.25338 7.52489 8.63904L7.20037 8.82448L7.52489 9.00993C8.1998 9.39559 8.43428 10.2553 8.04862 10.9303C7.66296 11.6052 6.8032 11.8396 6.12829 11.454L5.77099 11.2498V11.6394C5.77099 12.4167 5.14085 13.0469 4.36352 13.0469C3.5862 13.0469 2.95605 12.4167 2.95605 11.6394V8.82448C2.95605 8.47264 3.08516 8.15094 3.29858 7.90419C3.34735 7.84774 3.40078 7.79498 3.4585 7.74652C3.52966 7.68672 3.60681 7.63384 3.68894 7.58891L6.12829 6.19499C6.8032 5.80933 7.66296 6.04381 8.04862 6.71872Z" fill="#373737"/>
<path d="M20.383 6.71872C20.7687 6.04381 21.6284 5.80933 22.3033 6.19499L24.7427 7.5889C24.8248 7.63383 24.902 7.68672 24.9731 7.74652C25.2803 8.00471 25.4756 8.39179 25.4756 8.82448V11.6394C25.4756 12.4167 24.8454 13.0469 24.0681 13.0469C23.2908 13.0469 22.6606 12.4167 22.6606 11.6394V11.2498L22.3033 11.454C21.6284 11.8396 20.7687 11.6052 20.383 10.9303C19.9973 10.2553 20.2318 9.39559 20.9067 9.00993L21.2312 8.82448L20.9067 8.63904C20.2318 8.25338 19.9973 7.39362 20.383 6.71872Z" fill="#373737"/>
<path d="M10.5307 12.3486C10.9164 11.6737 11.7761 11.4392 12.451 11.8249L14.2158 12.8333L15.9806 11.8249C16.6555 11.4392 17.5152 11.6737 17.9009 12.3486C18.2866 13.0235 18.0521 13.8833 17.3772 14.2689L15.6233 15.2711V17.2693C15.6233 18.0466 14.9931 18.6768 14.2158 18.6768C13.4385 18.6768 12.8083 18.0466 12.8083 17.2693V15.2711L11.0544 14.2689C10.3795 13.8833 10.145 13.0235 10.5307 12.3486Z" fill="#373737"/>
<path d="M4.36352 15.8618C5.14085 15.8618 5.77099 16.492 5.77099 17.2693V19.2675L7.52489 20.2697C8.1998 20.6553 8.43428 21.5151 8.04862 22.19C7.66296 22.8649 6.8032 23.0994 6.12829 22.7137L3.66522 21.3063C3.22669 21.0557 2.95605 20.5893 2.95605 20.0842V17.2693C2.95605 16.492 3.5862 15.8618 4.36352 15.8618Z" fill="#373737"/>
<path d="M24.0681 15.8618C24.8454 15.8618 25.4756 16.492 25.4756 17.2693V20.0842C25.4756 20.5893 25.2049 21.0557 24.7664 21.3063L22.3033 22.7137C21.6284 23.0994 20.7687 22.8649 20.383 22.19C19.9973 21.5151 20.2318 20.6553 20.9067 20.2697L22.6606 19.2675V17.2693C22.6606 16.492 23.2908 15.8618 24.0681 15.8618Z" fill="#373737"/>
<path d="M10.5307 23.6083C10.9164 22.9334 11.7761 22.699 12.451 23.0846L12.8083 23.2888V22.8992C12.8083 22.1219 13.4385 21.4917 14.2158 21.4917C14.9931 21.4917 15.6233 22.1219 15.6233 22.8992V23.2888L15.9806 23.0846C16.6555 22.699 17.5152 22.9334 17.9009 23.6083C18.2866 24.2832 18.0521 25.143 17.3772 25.5287L14.9355 26.9239C14.7249 27.0495 14.4788 27.1216 14.2158 27.1216C13.9528 27.1216 13.7067 27.0495 13.4961 26.9239L11.0544 25.5287C10.3795 25.143 10.145 24.2832 10.5307 23.6083Z" fill="#373737"/>
</svg>
